<svg xmlns="http://www.w3.org/2000/svg" version="1.1" xmlns:xlink="http://www.w3.org/1999/xlink" xmlns:svgjs="http://svgjs.com/svgjs" width="1612" height="560" preserveAspectRatio="none" viewBox="0 0 1612 560"><g mask="url(&quot;#SvgjsMask1364&quot;)" fill="none"><rect width="1612" height="560" x="0" y="0" fill="url(#SvgjsLinearGradient1365)"></rect><path d="M1612 0L1196.06 0L1612 15.4z" fill="rgba(255, 255, 255, .1)"></path><path d="M1196.06 0L1612 15.4L1612 261.18L947.65 0z" fill="rgba(255, 255, 255, .075)"></path><path d="M947.65 0L1612 261.18L1612 288.84000000000003L402.77 0z" fill="rgba(255, 255, 255, .05)"></path><path d="M402.77 0L1612 288.84000000000003L1612 307.56000000000006L155.60999999999999 0z" fill="rgba(255, 255, 255, .025)"></path><path d="M0 560L616.15 560L0 343.52z" fill="rgba(0, 0, 0, .1)"></path><path d="M0 343.52L616.15 560L762.67 560L0 192.86999999999998z" fill="rgba(0, 0, 0, .075)"></path><path d="M0 192.87L762.67 560L1042.98 560L0 169.88z" fill="rgba(0, 0, 0, .05)"></path><path d="M0 169.88L1042.98 560L1278.42 560L0 65.41z" fill="rgba(0, 0, 0, .025)"></path></g><defs><mask id="SvgjsMask1364"><rect width="1612" height="560" fill="#ffffff"></rect></mask><linearGradient x1="16.32%" y1="-46.96%" x2="83.68%" y2="146.96%" gradientUnits="userSpaceOnUse" id="SvgjsLinearGradient1365"><stop stop-color="#0e2a47" offset="0"></stop><stop stop-color="rgba(52, 110, 186, 1)" offset="1"></stop></linearGradient></defs></svg>